<?xml version="1.0" encoding="utf-8"?>
<!-- Generator: Adobe Illustrator 19.0.0, SVG Export Plug-In . SVG Version: 6.00 Build 0)  -->
<svg version="1.1" id="Layer_1" xmlns="http://www.w3.org/2000/svg" xmlns:xlink="http://www.w3.org/1999/xlink" x="0px" y="0px"
	 viewBox="-290 382.8 30 29.2" style="enable-background:new -290 382.8 30 29.2;" xml:space="preserve">
<style type="text/css">
	.st0{display:none;fill:#041E10;}
	.st1{display:none;}
	.st2{display:inline;}
	.st3{fill:#E2404C;}
	.st4{fill:none;stroke:#FFFFFF;stroke-width:5;stroke-miterlimit:10;}
	.st5{fill:#E2404C;stroke:#FFFFFF;stroke-width:5;stroke-miterlimit:10;}
	.st6{fill:url(#XMLID_28_);stroke:#FFFFFF;stroke-width:5;stroke-miterlimit:10;}
	.st7{fill:url(#XMLID_29_);stroke:#FFFFFF;stroke-width:5;stroke-miterlimit:10;}
	.st8{fill:url(#XMLID_33_);stroke:#FFFFFF;stroke-width:5;stroke-miterlimit:10;}
	.st9{fill:#FFFFFF;}
	.st10{fill:#FA4549;}
	.st11{display:inline;fill:#FA4549;}
	.st12{display:inline;fill:#FFFFFF;}
</style>
<rect id="XMLID_2_" x="-884" y="-228.7" class="st0" width="383" height="372"/>
<g id="violate" class="st1">
	<g id="XMLID_3_" class="st2">
		
			<image style="overflow:visible;opacity:0.5;enable-background:new    ;" width="1467" height="1467" id="XMLID_22_" xlink:href="../4B3B9B0D.png"  transform="matrix(0.2393 0 0 0.2393 -859.5 -213.2)">
		</image>
		<g id="XMLID_15_">
			<circle id="XMLID_21_" class="st3" cx="-691" cy="-44.7" r="158"/>
			<circle id="XMLID_20_" class="st4" cx="-691" cy="-44.7" r="158"/>
		</g>
	</g>
	
		<text id="XMLID_4_" transform="matrix(1 0 0 1 -782.9341 33.632)" class="st12" style="font-family:'AndaleMono'; font-size:324.873px;">x</text>
</g>
<g id="XMLID_6_" class="st1">
	<g id="XMLID_1704_" class="st2">
		
			<image style="overflow:visible;opacity:0.5;enable-background:new    ;" width="1383" height="1558" id="XMLID_130_" xlink:href="../4B3B9B0F.png"  transform="matrix(0.2397 0 0 0.2394 -849.6407 -224.0972)">
		</image>
		<g id="XMLID_88_">
			<g id="XMLID_116_">
				<path id="XMLID_117_" class="st5" d="M-552-113.6c0-25.6-19.5-46.7-44.4-49.3c-7-18.9-25.1-32.4-46.5-32.4
					c-9.3,0-18,2.6-25.5,7.1c-8.5-15.2-24.7-25.4-43.3-25.4c-24.7,0-45.1,18.1-48.9,41.7c-2-0.2-4.1-0.4-6.1-0.4
					c-27.4,0-49.6,22.2-49.6,49.6c0,1.4,0.1,2.7,0.2,4c-13.9,8.8-23.1,24.2-23.1,41.9c0,15.6,7.2,29.5,18.5,38.6
					c-0.1,0.9-0.1,1.8-0.1,2.7c0,27.4,22.2,49.6,49.6,49.6c8.2,0,15.9-2,22.7-5.6c9.5,6.8,23,15.3,29.5,13.6c0,0,2.4,37.7,1.9,47.3
					c-1,18.2-6.5,38.5-10.3,55h59.6c0,0-8.8-36.6-9.2-48.8c-0.4-12.2,3.8-34.7,3.8-34.7l20.7-21.4c8,5.5,17.6,8.5,28,8.5
					c25.6,0,46.7-19.5,49.3-44.4c18.9-7,32.4-25.2,32.4-46.5c0-12.6-4.7-24-12.5-32.8C-553.2-101.4-552-107.4-552-113.6L-552-113.6z
					 M-737,0.2c4-3.8,7.3-8.2,9.9-13.2l9.7,20.4C-717.5,7.4-722.8,9.7-737,0.2L-737,0.2z M-700.7,12.8c-5,0.9-13.6-14.6-19.7-27.2
					C-713.6-11-706-9-697.9-9c2.1,0,4.1-0.2,6.1-0.4C-693.3,0.7-696.1,11.9-700.7,12.8L-700.7,12.8z M-679.3,22.7
					c-11.7,3.2-4.7-20.9-1.3-34.9c2.4-0.9,4.8-2,7-3.2c1.3,10.2,5.8,19.4,12.3,26.6C-667,16.3-673.5,21.1-679.3,22.7L-679.3,22.7z"
					/>
			</g>
		</g>
	</g>
	<g id="XMLID_17_" class="st2">
		<g id="XMLID_18_">
			
				<linearGradient id="XMLID_28_" gradientUnits="userSpaceOnUse" x1="-627.3158" y1="878.15" x2="-554.976" y2="878.15" gradientTransform="matrix(1 0 0 1 0 -1029)">
				<stop  offset="0" style="stop-color:#FFF33B"/>
				<stop  offset="4.010540e-002" style="stop-color:#FEE72E"/>
				<stop  offset="0.1171" style="stop-color:#FED51B"/>
				<stop  offset="0.1964" style="stop-color:#FDCA10"/>
				<stop  offset="0.2809" style="stop-color:#FDC70C"/>
				<stop  offset="0.6685" style="stop-color:#F3903F"/>
				<stop  offset="0.8876" style="stop-color:#ED683C"/>
				<stop  offset="1" style="stop-color:#E93E3A"/>
			</linearGradient>
			<path id="XMLID_19_" class="st6" d="M-607-109.2c-5.6-11.6-2.6-18.2,1.7-24.4c4.7-6.8,5.9-13.6,5.9-13.6s3.7,4.8,2.2,12.3
				c6.5-7.2,7.7-18.7,6.7-23.2c14.7,10.3,20.9,32.5,12.5,48.9c45-25.4,11.2-63.5,5.3-67.8c2,4.3,2.3,11.5-1.6,15.1
				c-6.7-25.4-23.3-30.6-23.3-30.6c2,13.1-7.1,27.4-15.8,38.2c-0.3-5.2-0.6-8.8-3.4-13.8c-0.6,9.5-7.9,17.2-9.8,26.7
				C-629.3-128.6-624.7-119.2-607-109.2L-607-109.2z"/>
		</g>
	</g>
	<g id="XMLID_25_" class="st2">
		<g id="XMLID_26_">
			
				<linearGradient id="XMLID_29_" gradientUnits="userSpaceOnUse" x1="-580.399" y1="944.15" x2="-529.6236" y2="944.15" gradientTransform="matrix(1 0 0 1 0 -1029)">
				<stop  offset="0" style="stop-color:#FFF33B"/>
				<stop  offset="4.010540e-002" style="stop-color:#FEE72E"/>
				<stop  offset="0.1171" style="stop-color:#FED51B"/>
				<stop  offset="0.1964" style="stop-color:#FDCA10"/>
				<stop  offset="0.2809" style="stop-color:#FDC70C"/>
				<stop  offset="0.6685" style="stop-color:#F3903F"/>
				<stop  offset="0.8876" style="stop-color:#ED683C"/>
				<stop  offset="1" style="stop-color:#E93E3A"/>
			</linearGradient>
			<path id="XMLID_27_" class="st7" d="M-566.1-55.7c-3.9-8.1-1.8-12.8,1.2-17.1c3.3-4.8,4.1-9.5,4.1-9.5s2.6,3.4,1.5,8.6
				c4.6-5.1,5.4-13.2,4.7-16.3c10.3,7.2,14.7,22.8,8.8,34.4c31.6-17.9,7.9-44.6,3.7-47.6c1.4,3,1.6,8.1-1.1,10.6
				c-4.7-17.8-16.3-21.5-16.3-21.5c1.4,9.2-5,19.3-11.1,26.8c-0.2-3.7-0.4-6.2-2.4-9.7c-0.4,6.7-5.5,12.1-6.9,18.8
				C-581.8-69.3-578.5-62.7-566.1-55.7L-566.1-55.7z"/>
		</g>
	</g>
	<g id="XMLID_30_" class="st2">
		<g id="XMLID_31_">
			
				<linearGradient id="XMLID_33_" gradientUnits="userSpaceOnUse" x1="-839.1064" y1="926.15" x2="-788.3236" y2="926.15" gradientTransform="matrix(1 0 0 1 0 -1029)">
				<stop  offset="0" style="stop-color:#FFF33B"/>
				<stop  offset="4.010540e-002" style="stop-color:#FEE72E"/>
				<stop  offset="0.1171" style="stop-color:#FED51B"/>
				<stop  offset="0.1964" style="stop-color:#FDCA10"/>
				<stop  offset="0.2809" style="stop-color:#FDC70C"/>
				<stop  offset="0.6685" style="stop-color:#F3903F"/>
				<stop  offset="0.8876" style="stop-color:#ED683C"/>
				<stop  offset="1" style="stop-color:#E93E3A"/>
			</linearGradient>
			<path id="XMLID_32_" class="st8" d="M-824.8-73.7c-3.9-8.1-1.8-12.8,1.2-17.1c3.3-4.8,4.1-9.5,4.1-9.5s2.6,3.4,1.5,8.6
				c4.6-5.1,5.4-13.2,4.7-16.3c10.3,7.2,14.7,22.8,8.8,34.4c31.6-17.9,7.9-44.6,3.7-47.6c1.4,3,1.6,8.1-1.1,10.6
				c-4.7-17.8-16.3-21.5-16.3-21.5c1.4,9.2-5,19.3-11.1,26.8c-0.2-3.7-0.4-6.2-2.4-9.7c-0.4,6.7-5.5,12.1-6.9,18.8
				C-840.5-87.4-837.3-80.7-824.8-73.7L-824.8-73.7z"/>
		</g>
	</g>
</g>
<g id="XMLID_35_" class="st1">
	
		<image style="display:inline;overflow:visible;opacity:0.5;enable-background:new    ;" width="1467" height="1475" id="XMLID_495_" xlink:href="../4B3B9B0A.png"  transform="matrix(0.2392 0 0 0.239 -859.3308 -219.2247)">
	</image>
	<g id="XMLID_306_" class="st2">
		<g id="XMLID_431_">
			<path id="XMLID_462_" class="st3" d="M-784.8-134.4c31,0,56.3,25.2,56.3,56.3c0,31-25.2,56.3-56.2,56.3
				c-31.1,0-56.3-25.2-56.3-56.3C-841-109.1-815.8-134.4-784.8-134.4L-784.8-134.4z"/>
			<path id="XMLID_461_" class="st3" d="M-784.8-11.5c31,0,56.3,25.2,56.3,56.3c0,31-25.2,56.3-56.2,56.3
				c-31.1,0-56.3-25.2-56.3-56.3S-815.8-11.5-784.8-11.5L-784.8-11.5z"/>
			<g id="XMLID_435_">
				<path id="XMLID_458_" class="st9" d="M-784.8-32c25.4,0,46.1-20.7,46.1-46.1s-20.7-46.1-46.1-46.1c-2.8,0-5.1,2.3-5.1,5.1
					c0,2.8,2.3,5.1,5.1,5.1c19.7,0,35.8,16.1,35.8,35.8c0,19.7-16.1,35.8-35.8,35.8s-35.8-16.1-35.8-35.8c0-2.8-2.3-5.1-5.1-5.1
					s-5.1,2.3-5.1,5.1C-830.9-52.7-810.2-32-784.8-32L-784.8-32z"/>
				<path id="XMLID_455_" class="st9" d="M-784.8-52.5c2.8,0,5.1-2.3,5.1-5.1c0-2.8-2.3-5.1-5.1-5.1c-8.5,0-15.3-6.9-15.3-15.3
					c0-8.5,6.9-15.3,15.3-15.3c8.5,0,15.3,6.9,15.3,15.3c0,2.8,2.3,5.1,5.1,5.1c2.8,0,5.1-2.3,5.1-5.1c0-14.1-11.5-25.6-25.6-25.6
					c-14.1,0-25.6,11.5-25.6,25.6C-810.4-64-798.9-52.5-784.8-52.5L-784.8-52.5z"/>
				<path id="XMLID_452_" class="st9" d="M-702.9-73h105.7c2.8,0,5.1-2.3,5.1-5.1c0-2.8-2.3-5.1-5.1-5.1h-105.7
					c-2.8,0-5.1,2.3-5.1,5.1C-708-75.3-705.7-73-702.9-73L-702.9-73z"/>
				<path id="XMLID_449_" class="st9" d="M-830.9,44.7c0,25.4,20.7,46.1,46.1,46.1c25.4,0,46.1-20.7,46.1-46.1s-20.7-46.1-46.1-46.1
					c-2.8,0-5.1,2.3-5.1,5.1c0,2.8,2.3,5.1,5.1,5.1c19.7,0,35.8,16.1,35.8,35.8c0,19.7-16.1,35.8-35.8,35.8
					c-19.7,0-35.8-16.1-35.8-35.8c0-2.8-2.3-5.1-5.1-5.1C-828.6,39.6-830.9,41.9-830.9,44.7L-830.9,44.7z"/>
				<path id="XMLID_446_" class="st9" d="M-784.8,70.4c2.8,0,5.1-2.3,5.1-5.1s-2.3-5.1-5.1-5.1c-8.5,0-15.3-6.9-15.3-15.3
					c0-8.5,6.9-15.3,15.3-15.3c8.5,0,15.3,6.9,15.3,15.3c0,2.8,2.3,5.1,5.1,5.1c2.8,0,5.1-2.3,5.1-5.1c0-14.1-11.5-25.6-25.6-25.6
					c-14.1,0-25.6,11.5-25.6,25.6C-810.4,58.9-798.9,70.4-784.8,70.4L-784.8,70.4z"/>
				<path id="XMLID_439_" class="st9" d="M-571.6-16.7c24-10.1,40.9-33.8,40.9-61.4c0-36.7-29.9-66.6-66.6-66.6h-51.6l-59.7-59.7
					c-0.1-0.1-0.2-0.2-0.3-0.3c-4.2-4.1-9.9-6.6-16.2-6.6c-12.9,0-23.4,10.5-23.4,23.4c0,6.3,2.5,12,6.5,16.2
					c0.1,0.1,0.2,0.2,0.3,0.3l26.7,26.7h-69.8c-36.7,0-66.6,29.9-66.6,66.6c0,27.6,16.9,51.4,40.9,61.4
					c-24,10.1-40.9,33.8-40.9,61.4c0,36.7,29.9,66.6,66.6,66.6h187.5c36.7,0,66.6-29.9,66.6-66.6C-530.7,17.1-547.6-6.6-571.6-16.7
					L-571.6-16.7z M-725.1-200.9c7.2,0,13.1,5.9,13.1,13.1c0,7.2-5.9,13.1-13.1,13.1c-7.2,0-13.1-5.9-13.1-13.1
					C-738.2-195.1-732.3-200.9-725.1-200.9L-725.1-200.9z M-702.5-134.4h22.6c2.8,0,5.1-2.3,5.1-5.1s-2.3-5.1-5.1-5.1h-20.5
					l-20.2-20.2c9.3-1.8,16.7-9.2,18.5-18.5l47.5,47.5c1,1,2.3,1.5,3.6,1.5h53.7c29.3,0,53.4,22.5,56,51.1h-35.5
					c-2.8,0-5.1,2.3-5.1,5.1s2.3,5.1,5.1,5.1h35.5c-2.6,28.6-26.7,51.1-56,51.1h-152c8.2-5.2,15.2-12.1,20.4-20.2h77.2
					c2.8,0,5.1-2.3,5.1-5.1c0-2.8-2.3-5.1-5.1-5.1h-71.7c3.3-7.9,5.2-16.6,5.2-25.7c0-23.7-12.4-44.5-31-56.3h46.7V-134.4z
					 M-784.8-134.4c31,0,56.3,25.2,56.3,56.3c0,31-25.2,56.3-56.2,56.3c-31.1,0-56.3-25.2-56.3-56.3
					C-841-109.1-815.8-134.4-784.8-134.4L-784.8-134.4z M-728.5,44.7c0,31-25.2,56.3-56.2,56.3c-31.1,0-56.3-25.2-56.3-56.3
					c0-31,25.2-56.3,56.3-56.3C-753.7-11.5-728.5,13.7-728.5,44.7L-728.5,44.7z"/>
				<path id="XMLID_436_" class="st9" d="M-656.9,44.7c0,2.8,2.3,5.1,5.1,5.1h95.5c2.8,0,5.1-2.3,5.1-5.1c0-2.8-2.3-5.1-5.1-5.1
					h-95.5C-654.6,39.6-656.9,41.9-656.9,44.7L-656.9,44.7z"/>
			</g>
			<path id="XMLID_434_" class="st3" d="M-725.1-200.9c7.2,0,13.1,5.9,13.1,13.1c0,7.2-5.9,13.1-13.1,13.1
				c-7.2,0-13.1-5.9-13.1-13.1C-738.2-195.1-732.3-200.9-725.1-200.9L-725.1-200.9z"/>
			<path id="XMLID_433_" class="st3" d="M-702.5-134.4h22.6c2.8,0,5.1-2.3,5.1-5.1s-2.3-5.1-5.1-5.1h-20.5l-20.2-20.2
				c9.3-1.8,16.7-9.2,18.5-18.5l47.5,47.5c1,1,2.3,1.5,3.6,1.5h53.7c29.3,0,53.4,22.5,56,51.1h-35.5c-2.8,0-5.1,2.3-5.1,5.1
				s2.3,5.1,5.1,5.1h35.5c-2.6,28.6-26.7,51.1-56,51.1h-152c8.2-5.2,15.2-12.1,20.4-20.2h77.2c2.8,0,5.1-2.3,5.1-5.1
				c0-2.8-2.3-5.1-5.1-5.1h-71.7c3.3-7.9,5.2-16.6,5.2-25.7c0-23.7-12.4-44.5-31-56.3h46.7V-134.4z"/>
			<path id="XMLID_432_" class="st3" d="M-547.2,70.5h-164c-2.8,0-5.1,2.3-5.1,5.1c0,2.8,2.3,5.1,5.1,5.1H-554
				c-10.3,12.4-25.8,20.2-43.2,20.2h-152c17.3-10.9,29.2-29.6,30.9-51.1h46.2c2.8,0,5.1-2.3,5.1-5.1c0-2.8-2.3-5.1-5.1-5.1h-46.2
				c-1.7-21.5-13.6-40.2-30.9-51.1h152c31,0,56.3,25.2,56.3,56.3C-541,54-543.2,62.8-547.2,70.5L-547.2,70.5z"/>
		</g>
	</g>
</g>
<g>
	<circle id="XMLID_16_" class="st10" cx="-275" cy="397.4" r="13.2"/>
	<g id="XMLID_11_">
		<path id="XMLID_12_" class="st9" d="M-275,393.8v1h2.4v1.5h-2.4v7.6h-2.1v-7.6h-1.2v-1.5h1.2v-0.9c0-2.2,1.5-3.3,3.3-3.3
			c0.7,0,1.5,0.2,2.1,0.7l-0.9,1.5c-0.3-0.3-0.9-0.5-1.4-0.5C-274.5,392.6-275,393-275,393.8z"/>
	</g>
</g>
<g class="st1">
	<circle id="XMLID_14_" class="st11" cx="-281.5" cy="463.7" r="13.2"/>
	<g id="XMLID_8_" class="st2">
		<path id="XMLID_10_" class="st9" d="M-285.1,459.4c0,0.5-0.3,0.9-0.9,0.9c-0.5,0-0.9-0.3-0.9-0.9c0-0.5,0.3-1,0.9-1
			C-285.4,458.4-285.1,458.9-285.1,459.4z M-286.8,468.9v-7.2h1.5v7.2H-286.8z"/>
		<path id="XMLID_9_" class="st9" d="M-276,464.2v4.5h-1.5v-4.1c0-1-0.7-1.7-1.7-1.7c-1.2,0-1.9,0.9-2.1,1.9v3.8h-1.5v-7.2h1.5v1.4
			c0.5-1,1.4-1.4,2.6-1.4C-277,461.5-276,462.5-276,464.2z"/>
	</g>
</g>
<g class="st1">
	<circle id="XMLID_13_" class="st11" cx="-238.5" cy="425.2" r="13.2"/>
	<path id="XMLID_1_" class="st12" d="M-245.3,429.9c1.2,0.9,2.7,1.4,4.3,1.4c5.2,0,8.1-4.6,8.1-8.8c0-0.2,0-0.3,0-0.3
		c0.5-0.5,1-1,1.4-1.5c-0.5,0.2-1,0.3-1.5,0.5c0.5-0.3,1-1,1.2-1.7c-0.5,0.3-1.2,0.7-1.7,0.7c-0.5-0.5-1.2-1-2.1-1
		c-1.5,0-2.7,1.4-2.7,3.1c0,0.2,0,0.5,0,0.7c-2.4-0.2-4.5-1.4-5.8-3.3c-0.2,0.5-0.3,1-0.3,1.5c0,1,0.5,2.1,1.2,2.6
		c-0.5,0-0.9-0.2-1.2-0.3l0,0c0,1.5,1,2.7,2.2,3.1c-0.2,0-0.5,0.2-0.7,0.2s-0.3,0-0.5,0c0.3,1.2,1.4,2.1,2.6,2.1
		c-1,0.9-2.2,1.4-3.4,1.4C-244.8,429.9-245.2,429.9-245.3,429.9L-245.3,429.9z"/>
</g>
</svg>
